<?xml version="1.0" standalone="no"?>
<!DOCTYPE svg PUBLIC "-//W3C//DTD SVG 20010904//EN"
 "http://www.w3.org/TR/2001/REC-SVG-20010904/DTD/svg10.dtd">
<svg version="1.0" xmlns="http://www.w3.org/2000/svg"
 width="150.000000pt" height="150.000000pt" viewBox="0 0 150.000000 150.000000"
 preserveAspectRatio="xMidYMid meet">
<metadata>
Created by potrace 1.11, written by Peter Selinger 2001-2013
</metadata>
<g transform="translate(0.000000,150.000000) scale(0.100000,-0.100000)"
fill="#000000" stroke="none">
<path d="M1120 1035 l0 -285 95 0 95 0 0 285 0 285 -95 0 -95 0 0 -285z"/>
<path d="M180 660 l0 -190 -45 0 -45 0 0 -90 0 -90 45 0 45 0 0 -50 0 -50 140
0 140 0 0 50 0 50 95 0 95 0 0 45 0 45 95 0 95 0 0 45 0 45 95 0 95 0 0 140 0
140 -50 0 -50 0 0 50 0 50 -90 0 -90 0 0 -50 0 -50 -95 0 -95 0 0 -45 0 -45
-95 0 -95 0 0 95 0 95 -95 0 -95 0 0 -190z"/>
</g>
</svg>
